# xmcd CD database file
#
# Track frame offsets:
#	150
#	32571
#	52946
#	76090
#	111910
#	128487
#	164605
#	184814
#	206709
#	257431
#	272883
#	290357
#	308097
#
# Disc length: 4414 seconds
#
# Revision: 0
# Processed by: cddbd v1.5.2PL0 Copyright (c) Steve Scherf et al.
# Submitted via: CDex 1.70beta2
#
DISCID=ae113c0d
DTITLE=MODERN JAZZ QUARTET - UNE ANTHOLOGIE 1952/1956 CD2
DYEAR=1900
DGENRE=Jazz
TTITLE0=RALPH' NEW BLUES
TTITLE1=ALL OF YOU
TTITLE2=I'LL REMEMBER APRIL
TTITLE3=GERSHWIN MEDLEY
TTITLE4=CONCORDE
TTITLE5=SOFTLY, AS IN A MORNING SUNRISE
TTITLE6=WOODY'N YOU
TTITLE7=WILLOW WEEP FOR ME
TTITLE8=FONTESSA
TTITLE9=VERSAILLE (PORTE DE VERSAILLE)
TTITLE10=ANGEL EYES 
TTITLE11=OVER  THE RAINBOW
TTITLE12=BLUESOLOGY
EXTD=
EXTT0=
EXTT1=
EXTT2=
EXTT3=
EXTT4=
EXTT5=
EXTT6=
EXTT7=
EXTT8=
EXTT9=
EXTT10=
EXTT11=
EXTT12=
PLAYORDER=
